# xmcd
#
# Track frame offsets:
#	150
#	19612
#	40405
#	56475
#	73830
#	94925
#	115700
#	133800
#	151737
#	176412
#	194175
#	219375
#	237957
#	257487
#	273150
#	289840
#	307542
#
# Disc length: 4350 seconds
#
# Revision: 0
# Processed by: cddbd v1.5.2PL0 Copyright (c) Steve Scherf et al.
# Submitted via: EasyCDDAExtractor 12.0.0.1
#
DISCID=ed10fc11
DTITLE=Various Artist - Romeo and Julia
DYEAR=1900
DGENRE=Ballad
TTITLE0=Madonna - You'll See
TTITLE1=Phil Collins - Do You Remember
TTITLE2=Rod Stewart - Tonight's The Night (Gonna Be Alright)
TTITLE3=Shola Ama - You Might Need Somebody
TTITLE4=Backstreet Boys - Anywhere For You
TTITLE5=Gary Barlow - Forever Love
TTITLE6=Coolio Feat. 40 Thevz - C U When U Get There
TTITLE7=Barry White - Just The Way You Are
TTITLE8=George Michael - You Have Been Loved
TTITLE9=Art Garfunkel - Bright Eyes
TTITLE10=Guns 'n' Roses - Knockin' On Heaven's Door
TTITLE11=Joshua Kadison - Beautiful In My Eyes
TTITLE12=Lenny Kravitz - Stand By My Woman
TTITLE13=Inxs - Beautiful Girl
TTITLE14=Leo Sayer - Orchard Road
TTITLE15=Dune - Who Wants To Live Forever
TTITLE16=Prince - Purple Rain
EXTD=
EXTT0=
EXTT1=
EXTT2=
EXTT3=
EXTT4=
EXTT5=
EXTT6=
EXTT7=
EXTT8=
EXTT9=
EXTT10=
EXTT11=
EXTT12=
EXTT13=
EXTT14=
EXTT15=
EXTT16=
PLAYORDER=
